<svg style="object-fit:cover" id="my-svg" version="1" baseProfile="full" width="100%" height="100%" viewBox="0 0 1920 969" xmlns="http://www.w3.org/2000/svg"><rect width="1920" height="969" fill="#061f3e"/><defs><radialGradient id="radial-gradient" cx="0.5" cy="0.75" r="0"><stop offset="0%" stop-color="#844ca390"/><stop offset="100%" stop-color="#861e3f90"/></radialGradient></defs><path transform="scale(1, 1)" style="transform-origin:center" d="M 0,969 V 0,581 C 165.85714285714283,654 331.71428571428567,727 507,736 C 682.2857142857143,745 867,690 1005,635 C 1143,580 1234.2857142857144,525 1379,516 C 1523.7142857142856,507 1721.8571428571427,544 1920,581 C 1920,581 1920,969 1920,969 Z" stroke="none" stroke-width="0" fill="url(#radial-gradient)" class="transition-all duration-300 ease-in-out delay-150"/><defs><radialGradient id="radial-gradient" cx="0.5" cy="0.75" r="0"><stop offset="0%" stop-color="#844ca3ff"/><stop offset="100%" stop-color="#861e3fff"/></radialGradient></defs><path transform="scale(1, 1)" style="transform-origin: center center 0px;" d="M 0,969 V 0,872 C 210.92857142857144,822.9642857142858 421.8571428571429,773.9285714285714 557,746 C 692.1428571428571,718.0714285714286 751.5000000000001,711.2500000000001 877,754 C 1002.4999999999999,796.7499999999999 1194.142857142857,889.0714285714286 1379,917 C 1563.857142857143,944.9285714285714 1741.9285714285716,908.4642857142858 1920,872 C 1920,872 1920,969 1920,969 Z" stroke="none" stroke-width="0" fill="url(#radial-gradient)" class="transition-all duration-300 ease-in-out delay-150"/></svg>